<svg xmlns="http://www.w3.org/2000/svg" xmlns:xlink="http://www.w3.org/1999/xlink" width="300" zoomAndPan="magnify" viewBox="0 0 224.87999 37.5" height="50" preserveAspectRatio="xMidYMid meet" version="1.0"><defs><g/></defs><g fill="#000000" fill-opacity="1"><g transform="translate(32.106806, 27.014802)"><g><path d="M 13.3125 0.296875 C 11.207031 0.296875 9.28125 -0.222656 7.53125 -1.265625 C 5.78125 -2.316406 4.398438 -3.75 3.390625 -5.5625 C 2.390625 -7.375 1.890625 -9.378906 1.890625 -11.578125 C 1.890625 -13.742188 2.390625 -15.726562 3.390625 -17.53125 C 4.398438 -19.332031 5.78125 -20.757812 7.53125 -21.8125 C 9.28125 -22.875 11.207031 -23.40625 13.3125 -23.40625 C 14.8125 -23.40625 16.109375 -23.207031 17.203125 -22.8125 C 18.296875 -22.414062 19.40625 -21.765625 20.53125 -20.859375 C 20.769531 -20.679688 20.925781 -20.5 21 -20.3125 C 21.082031 -20.125 21.125 -19.90625 21.125 -19.65625 C 21.125 -19.257812 20.976562 -18.929688 20.6875 -18.671875 C 20.40625 -18.410156 20.078125 -18.28125 19.703125 -18.28125 C 19.328125 -18.28125 18.984375 -18.410156 18.671875 -18.671875 C 17.859375 -19.359375 17.066406 -19.851562 16.296875 -20.15625 C 15.535156 -20.46875 14.539062 -20.625 13.3125 -20.625 C 11.78125 -20.625 10.363281 -20.21875 9.0625 -19.40625 C 7.769531 -18.601562 6.742188 -17.503906 5.984375 -16.109375 C 5.234375 -14.722656 4.859375 -13.210938 4.859375 -11.578125 C 4.859375 -9.910156 5.234375 -8.382812 5.984375 -7 C 6.742188 -5.625 7.769531 -4.53125 9.0625 -3.71875 C 10.363281 -2.914062 11.78125 -2.515625 13.3125 -2.515625 C 15.207031 -2.515625 17.023438 -3.164062 18.765625 -4.46875 C 19.097656 -4.707031 19.421875 -4.828125 19.734375 -4.828125 C 20.109375 -4.828125 20.421875 -4.691406 20.671875 -4.421875 C 20.921875 -4.160156 21.046875 -3.8125 21.046875 -3.375 C 21.046875 -2.957031 20.882812 -2.59375 20.5625 -2.28125 C 18.4375 -0.5625 16.019531 0.296875 13.3125 0.296875 Z M 13.3125 0.296875 "/></g></g></g><g fill="#000000" fill-opacity="1"><g transform="translate(55.101163, 27.014802)"><g><path d="M 4.46875 0 C 4.03125 0 3.664062 -0.144531 3.375 -0.4375 C 3.09375 -0.738281 2.953125 -1.101562 2.953125 -1.53125 L 2.953125 -21.578125 C 2.953125 -22.003906 3.097656 -22.363281 3.390625 -22.65625 C 3.691406 -22.957031 4.050781 -23.109375 4.46875 -23.109375 C 4.90625 -23.109375 5.269531 -22.957031 5.5625 -22.65625 C 5.851562 -22.363281 6 -22.003906 6 -21.578125 L 6 -3.078125 L 16.71875 -3.078125 C 17.15625 -3.078125 17.519531 -2.925781 17.8125 -2.625 C 18.113281 -2.332031 18.265625 -1.96875 18.265625 -1.53125 C 18.265625 -1.101562 18.113281 -0.738281 17.8125 -0.4375 C 17.519531 -0.144531 17.15625 0 16.71875 0 Z M 4.46875 0 "/></g></g></g><g fill="#000000" fill-opacity="1"><g transform="translate(74.100361, 27.014802)"><g/></g></g><g fill="#ff3131" fill-opacity="1"><g transform="translate(82.771123, 27.014802)"><g><path d="M 2.640625 0 C 2.203125 0 1.832031 -0.144531 1.53125 -0.4375 C 1.238281 -0.738281 1.09375 -1.101562 1.09375 -1.53125 L 1.09375 -21.578125 C 1.09375 -22.023438 1.238281 -22.390625 1.53125 -22.671875 C 1.832031 -22.960938 2.203125 -23.109375 2.640625 -23.109375 L 16.015625 -23.109375 C 16.460938 -23.109375 16.820312 -22.972656 17.09375 -22.703125 C 17.375 -22.441406 17.515625 -22.09375 17.515625 -21.65625 C 17.515625 -21.25 17.375 -20.914062 17.09375 -20.65625 C 16.820312 -20.394531 16.460938 -20.265625 16.015625 -20.265625 L 4.171875 -20.265625 L 4.171875 -13.078125 L 12.671875 -13.078125 C 13.097656 -13.078125 13.453125 -12.941406 13.734375 -12.671875 C 14.023438 -12.410156 14.171875 -12.070312 14.171875 -11.65625 C 14.171875 -11.238281 14.023438 -10.894531 13.734375 -10.625 C 13.453125 -10.363281 13.097656 -10.234375 12.671875 -10.234375 L 4.171875 -10.234375 L 4.171875 -1.53125 C 4.171875 -1.101562 4.019531 -0.738281 3.71875 -0.4375 C 3.425781 -0.144531 3.066406 0 2.640625 0 Z M 2.640625 0 "/></g></g></g><g fill="#ff3131" fill-opacity="1"><g transform="translate(101.267229, 27.014802)"><g><path d="M 4.46875 0 C 4.03125 0 3.664062 -0.140625 3.375 -0.421875 C 3.09375 -0.710938 2.953125 -1.078125 2.953125 -1.515625 L 2.953125 -14.671875 C 2.953125 -15.128906 3.09375 -15.492188 3.375 -15.765625 C 3.664062 -16.046875 4.03125 -16.1875 4.46875 -16.1875 C 4.925781 -16.1875 5.289062 -16.046875 5.5625 -15.765625 C 5.84375 -15.492188 5.984375 -15.128906 5.984375 -14.671875 L 5.984375 -1.515625 C 5.984375 -1.078125 5.84375 -0.710938 5.5625 -0.421875 C 5.289062 -0.140625 4.925781 0 4.46875 0 Z M 4.46875 -18.828125 C 3.9375 -18.828125 3.476562 -19.015625 3.09375 -19.390625 C 2.707031 -19.773438 2.515625 -20.238281 2.515625 -20.78125 C 2.515625 -21.3125 2.707031 -21.769531 3.09375 -22.15625 C 3.476562 -22.539062 3.9375 -22.734375 4.46875 -22.734375 C 5 -22.734375 5.457031 -22.539062 5.84375 -22.15625 C 6.226562 -21.769531 6.421875 -21.3125 6.421875 -20.78125 C 6.421875 -20.238281 6.226562 -19.773438 5.84375 -19.390625 C 5.457031 -19.015625 5 -18.828125 4.46875 -18.828125 Z M 4.46875 -18.828125 "/></g></g></g><g fill="#ff3131" fill-opacity="1"><g transform="translate(110.204541, 27.014802)"><g><path d="M 9.5625 -2.953125 C 9.914062 -2.953125 10.210938 -2.8125 10.453125 -2.53125 C 10.703125 -2.257812 10.828125 -1.910156 10.828125 -1.484375 C 10.828125 -1.046875 10.664062 -0.6875 10.34375 -0.40625 C 10.019531 -0.132812 9.597656 0 9.078125 0 L 8.546875 0 C 7.585938 0 6.707031 -0.25 5.90625 -0.75 C 5.101562 -1.257812 4.472656 -1.945312 4.015625 -2.8125 C 3.566406 -3.675781 3.34375 -4.648438 3.34375 -5.734375 L 3.34375 -13.046875 L 1.984375 -13.046875 C 1.566406 -13.046875 1.226562 -13.164062 0.96875 -13.40625 C 0.71875 -13.644531 0.59375 -13.941406 0.59375 -14.296875 C 0.59375 -14.691406 0.71875 -15.003906 0.96875 -15.234375 C 1.226562 -15.472656 1.566406 -15.59375 1.984375 -15.59375 L 3.34375 -15.59375 L 3.34375 -19.859375 C 3.34375 -20.296875 3.476562 -20.648438 3.75 -20.921875 C 4.03125 -21.203125 4.390625 -21.34375 4.828125 -21.34375 C 5.253906 -21.34375 5.601562 -21.203125 5.875 -20.921875 C 6.15625 -20.648438 6.296875 -20.296875 6.296875 -19.859375 L 6.296875 -15.59375 L 8.8125 -15.59375 C 9.226562 -15.59375 9.5625 -15.472656 9.8125 -15.234375 C 10.070312 -15.003906 10.203125 -14.691406 10.203125 -14.296875 C 10.203125 -13.941406 10.070312 -13.644531 9.8125 -13.40625 C 9.5625 -13.164062 9.226562 -13.046875 8.8125 -13.046875 L 6.296875 -13.046875 L 6.296875 -5.734375 C 6.296875 -4.953125 6.515625 -4.289062 6.953125 -3.75 C 7.390625 -3.21875 7.921875 -2.953125 8.546875 -2.953125 Z M 9.5625 -2.953125 "/></g></g></g><g fill="#ff3131" fill-opacity="1"><g transform="translate(122.071638, 27.014802)"><g><path d="M 10.71875 -16.328125 C 12.070312 -16.328125 13.289062 -16.03125 14.375 -15.4375 C 15.46875 -14.851562 16.316406 -13.992188 16.921875 -12.859375 C 17.535156 -11.722656 17.84375 -10.359375 17.84375 -8.765625 L 17.84375 -1.484375 C 17.84375 -1.046875 17.695312 -0.679688 17.40625 -0.390625 C 17.125 -0.109375 16.765625 0.03125 16.328125 0.03125 C 15.898438 0.03125 15.539062 -0.109375 15.25 -0.390625 C 14.96875 -0.679688 14.828125 -1.046875 14.828125 -1.484375 L 14.828125 -8.765625 C 14.828125 -10.359375 14.394531 -11.5625 13.53125 -12.375 C 12.675781 -13.195312 11.539062 -13.609375 10.125 -13.609375 C 9.289062 -13.609375 8.535156 -13.441406 7.859375 -13.109375 C 7.179688 -12.773438 6.648438 -12.320312 6.265625 -11.75 C 5.878906 -11.175781 5.6875 -10.535156 5.6875 -9.828125 L 5.6875 -1.484375 C 5.6875 -1.046875 5.546875 -0.679688 5.265625 -0.390625 C 4.992188 -0.109375 4.628906 0.03125 4.171875 0.03125 C 3.734375 0.03125 3.367188 -0.109375 3.078125 -0.390625 C 2.796875 -0.679688 2.65625 -1.046875 2.65625 -1.484375 L 2.65625 -14.671875 C 2.65625 -15.128906 2.796875 -15.492188 3.078125 -15.765625 C 3.367188 -16.046875 3.734375 -16.1875 4.171875 -16.1875 C 4.628906 -16.1875 4.992188 -16.046875 5.265625 -15.765625 C 5.546875 -15.492188 5.6875 -15.128906 5.6875 -14.671875 L 5.6875 -14.359375 C 6.3125 -14.984375 7.054688 -15.46875 7.921875 -15.8125 C 8.796875 -16.15625 9.726562 -16.328125 10.71875 -16.328125 Z M 10.71875 -16.328125 "/></g></g></g><g fill="#ff3131" fill-opacity="1"><g transform="translate(142.254588, 27.014802)"><g><path d="M 17.1875 -8.34375 C 17.1875 -7.96875 17.054688 -7.65625 16.796875 -7.40625 C 16.546875 -7.164062 16.222656 -7.046875 15.828125 -7.046875 L 4.59375 -7.046875 C 4.800781 -5.660156 5.421875 -4.539062 6.453125 -3.6875 C 7.492188 -2.84375 8.765625 -2.421875 10.265625 -2.421875 C 10.859375 -2.421875 11.472656 -2.53125 12.109375 -2.75 C 12.753906 -2.96875 13.285156 -3.234375 13.703125 -3.546875 C 13.972656 -3.765625 14.296875 -3.875 14.671875 -3.875 C 15.046875 -3.875 15.34375 -3.773438 15.5625 -3.578125 C 15.914062 -3.285156 16.09375 -2.953125 16.09375 -2.578125 C 16.09375 -2.222656 15.9375 -1.925781 15.625 -1.6875 C 14.957031 -1.15625 14.125 -0.71875 13.125 -0.375 C 12.125 -0.0390625 11.171875 0.125 10.265625 0.125 C 8.648438 0.125 7.203125 -0.222656 5.921875 -0.921875 C 4.640625 -1.628906 3.632812 -2.601562 2.90625 -3.84375 C 2.1875 -5.09375 1.828125 -6.503906 1.828125 -8.078125 C 1.828125 -9.660156 2.164062 -11.078125 2.84375 -12.328125 C 3.53125 -13.578125 4.476562 -14.550781 5.6875 -15.25 C 6.90625 -15.957031 8.285156 -16.3125 9.828125 -16.3125 C 11.347656 -16.3125 12.660156 -15.972656 13.765625 -15.296875 C 14.867188 -14.628906 15.710938 -13.691406 16.296875 -12.484375 C 16.890625 -11.285156 17.1875 -9.90625 17.1875 -8.34375 Z M 9.828125 -13.765625 C 8.390625 -13.765625 7.21875 -13.367188 6.3125 -12.578125 C 5.414062 -11.785156 4.847656 -10.726562 4.609375 -9.40625 L 14.46875 -9.40625 C 14.289062 -10.726562 13.796875 -11.785156 12.984375 -12.578125 C 12.179688 -13.367188 11.128906 -13.765625 9.828125 -13.765625 Z M 9.828125 -13.765625 "/></g></g></g><g fill="#ff3131" fill-opacity="1"><g transform="translate(160.632316, 27.014802)"><g><path d="M 8.546875 0.125 C 7.210938 0.125 5.953125 -0.0820312 4.765625 -0.5 C 3.578125 -0.914062 2.648438 -1.457031 1.984375 -2.125 C 1.722656 -2.382812 1.59375 -2.691406 1.59375 -3.046875 C 1.59375 -3.523438 1.789062 -3.910156 2.1875 -4.203125 C 2.5625 -4.472656 2.90625 -4.609375 3.21875 -4.609375 C 3.613281 -4.609375 3.988281 -4.429688 4.34375 -4.078125 C 4.71875 -3.671875 5.28125 -3.3125 6.03125 -3 C 6.78125 -2.695312 7.582031 -2.546875 8.4375 -2.546875 C 9.5625 -2.546875 10.429688 -2.734375 11.046875 -3.109375 C 11.671875 -3.484375 11.984375 -3.984375 11.984375 -4.609375 C 11.984375 -5.222656 11.675781 -5.734375 11.0625 -6.140625 C 10.457031 -6.546875 9.421875 -6.882812 7.953125 -7.15625 C 4.171875 -7.882812 2.28125 -9.445312 2.28125 -11.84375 C 2.28125 -12.800781 2.566406 -13.613281 3.140625 -14.28125 C 3.710938 -14.957031 4.460938 -15.460938 5.390625 -15.796875 C 6.316406 -16.140625 7.300781 -16.3125 8.34375 -16.3125 C 9.625 -16.3125 10.769531 -16.101562 11.78125 -15.6875 C 12.800781 -15.269531 13.609375 -14.695312 14.203125 -13.96875 C 14.460938 -13.65625 14.59375 -13.335938 14.59375 -13.015625 C 14.59375 -12.679688 14.425781 -12.378906 14.09375 -12.109375 C 13.875 -11.941406 13.597656 -11.859375 13.265625 -11.859375 C 12.742188 -11.859375 12.273438 -12.046875 11.859375 -12.421875 C 11.367188 -12.878906 10.847656 -13.203125 10.296875 -13.390625 C 9.742188 -13.578125 9.070312 -13.671875 8.28125 -13.671875 C 7.375 -13.671875 6.628906 -13.515625 6.046875 -13.203125 C 5.460938 -12.898438 5.171875 -12.472656 5.171875 -11.921875 C 5.171875 -11.523438 5.269531 -11.191406 5.46875 -10.921875 C 5.664062 -10.660156 6.039062 -10.414062 6.59375 -10.1875 C 7.144531 -9.96875 7.945312 -9.75 9 -9.53125 C 11.144531 -9.09375 12.664062 -8.488281 13.5625 -7.71875 C 14.46875 -6.945312 14.921875 -5.953125 14.921875 -4.734375 C 14.921875 -3.828125 14.671875 -3.003906 14.171875 -2.265625 C 13.679688 -1.523438 12.957031 -0.941406 12 -0.515625 C 11.039062 -0.0859375 9.890625 0.125 8.546875 0.125 Z M 8.546875 0.125 "/></g></g></g><g fill="#ff3131" fill-opacity="1"><g transform="translate(176.701729, 27.014802)"><g><path d="M 8.546875 0.125 C 7.210938 0.125 5.953125 -0.0820312 4.765625 -0.5 C 3.578125 -0.914062 2.648438 -1.457031 1.984375 -2.125 C 1.722656 -2.382812 1.59375 -2.691406 1.59375 -3.046875 C 1.59375 -3.523438 1.789062 -3.910156 2.1875 -4.203125 C 2.5625 -4.472656 2.90625 -4.609375 3.21875 -4.609375 C 3.613281 -4.609375 3.988281 -4.429688 4.34375 -4.078125 C 4.71875 -3.671875 5.28125 -3.3125 6.03125 -3 C 6.78125 -2.695312 7.582031 -2.546875 8.4375 -2.546875 C 9.5625 -2.546875 10.429688 -2.734375 11.046875 -3.109375 C 11.671875 -3.484375 11.984375 -3.984375 11.984375 -4.609375 C 11.984375 -5.222656 11.675781 -5.734375 11.0625 -6.140625 C 10.457031 -6.546875 9.421875 -6.882812 7.953125 -7.15625 C 4.171875 -7.882812 2.28125 -9.445312 2.28125 -11.84375 C 2.28125 -12.800781 2.566406 -13.613281 3.140625 -14.28125 C 3.710938 -14.957031 4.460938 -15.460938 5.390625 -15.796875 C 6.316406 -16.140625 7.300781 -16.3125 8.34375 -16.3125 C 9.625 -16.3125 10.769531 -16.101562 11.78125 -15.6875 C 12.800781 -15.269531 13.609375 -14.695312 14.203125 -13.96875 C 14.460938 -13.65625 14.59375 -13.335938 14.59375 -13.015625 C 14.59375 -12.679688 14.425781 -12.378906 14.09375 -12.109375 C 13.875 -11.941406 13.597656 -11.859375 13.265625 -11.859375 C 12.742188 -11.859375 12.273438 -12.046875 11.859375 -12.421875 C 11.367188 -12.878906 10.847656 -13.203125 10.296875 -13.390625 C 9.742188 -13.578125 9.070312 -13.671875 8.28125 -13.671875 C 7.375 -13.671875 6.628906 -13.515625 6.046875 -13.203125 C 5.460938 -12.898438 5.171875 -12.472656 5.171875 -11.921875 C 5.171875 -11.523438 5.269531 -11.191406 5.46875 -10.921875 C 5.664062 -10.660156 6.039062 -10.414062 6.59375 -10.1875 C 7.144531 -9.96875 7.945312 -9.75 9 -9.53125 C 11.144531 -9.09375 12.664062 -8.488281 13.5625 -7.71875 C 14.46875 -6.945312 14.921875 -5.953125 14.921875 -4.734375 C 14.921875 -3.828125 14.671875 -3.003906 14.171875 -2.265625 C 13.679688 -1.523438 12.957031 -0.941406 12 -0.515625 C 11.039062 -0.0859375 9.890625 0.125 8.546875 0.125 Z M 8.546875 0.125 "/></g></g></g></svg>